<svg width="549" height="82" viewBox="0 0 549 82" fill="none" xmlns="http://www.w3.org/2000/svg">
<rect x="8" y="10" width="533" height="62" rx="29" stroke="black" stroke-opacity="0.6" stroke-width="2"/>
<path d="M235.031 49.69H246.521V44.14H238.601V35.2H254.561V30.46H238.601V28.45H256.961V37.27H241.001V42.1H257.381V44.14H248.921V49.69H260.531V51.67H235.031V49.69ZM283.674 44.5H281.274V31.03H265.344V28.99H283.674V44.5ZM261.744 49.33H287.184V51.34H261.744V49.33ZM301.356 35.05C301.356 34.37 301.236 33.72 300.996 33.1C300.756 32.46 300.416 31.9 299.976 31.42C299.536 30.94 299.006 30.56 298.386 30.28C297.766 29.98 297.086 29.83 296.346 29.83C295.586 29.83 294.896 29.98 294.276 30.28C293.676 30.56 293.156 30.94 292.716 31.42C292.276 31.9 291.936 32.46 291.696 33.1C291.456 33.72 291.336 34.37 291.336 35.05C291.336 35.73 291.456 36.39 291.696 37.03C291.936 37.65 292.276 38.2 292.716 38.68C293.156 39.16 293.676 39.55 294.276 39.85C294.896 40.13 295.586 40.27 296.346 40.27C297.086 40.27 297.766 40.13 298.386 39.85C299.006 39.55 299.536 39.16 299.976 38.68C300.416 38.2 300.756 37.65 300.996 37.03C301.236 36.39 301.356 35.73 301.356 35.05ZM303.756 35.05C303.756 36.13 303.556 37.12 303.156 38.02C302.756 38.92 302.216 39.69 301.536 40.33C300.876 40.95 300.096 41.44 299.196 41.8C298.296 42.14 297.346 42.31 296.346 42.31C295.346 42.31 294.396 42.14 293.496 41.8C292.596 41.44 291.806 40.95 291.126 40.33C290.446 39.69 289.906 38.92 289.506 38.02C289.126 37.12 288.936 36.13 288.936 35.05C288.936 33.97 289.126 32.98 289.506 32.08C289.906 31.18 290.446 30.42 291.126 29.8C291.806 29.16 292.596 28.67 293.496 28.33C294.396 27.97 295.346 27.79 296.346 27.79C297.346 27.79 298.296 27.97 299.196 28.33C300.096 28.67 300.876 29.16 301.536 29.8C302.216 30.42 302.756 31.18 303.156 32.08C303.556 32.98 303.756 33.97 303.756 35.05ZM311.196 27.19V47.44H308.796V27.19H311.196ZM296.376 45.73V52.66H311.646V54.7H293.976V45.73H296.376Z" fill="black"/>
</svg>
